<mxfile host="app.diagrams.net" agent="Mozilla/5.0 (Windows NT 10.0; Win64; x64) AppleWebKit/537.36 (KHTML, like Gecko) Chrome/129.0.0.0 Safari/537.36" version="24.7.17">
  <diagram name="Page-1" id="1243NiuuwbH6fxxG8rUC">
    <mxGraphModel dx="1434" dy="746" grid="1" gridSize="10" guides="1" tooltips="1" connect="1" arrows="1" fold="1" page="1" pageScale="1" pageWidth="850" pageHeight="1100" math="0" shadow="0">
      <root>
        <mxCell id="0" />
        <mxCell id="1" parent="0" />
        <mxCell id="zF4KQJ1n16yZSs5eWbTW-1" value="Start" style="whiteSpace=wrap;strokeWidth=2;" vertex="1" parent="1">
          <mxGeometry x="239" y="20" width="96" height="49" as="geometry" />
        </mxCell>
        <mxCell id="zF4KQJ1n16yZSs5eWbTW-2" value="Admin enters credentials" style="whiteSpace=wrap;strokeWidth=2;" vertex="1" parent="1">
          <mxGeometry x="166" y="119" width="241" height="49" as="geometry" />
        </mxCell>
        <mxCell id="zF4KQJ1n16yZSs5eWbTW-3" value="System validates credentials" style="whiteSpace=wrap;strokeWidth=2;" vertex="1" parent="1">
          <mxGeometry x="197" y="218" width="180" height="67" as="geometry" />
        </mxCell>
        <mxCell id="zF4KQJ1n16yZSs5eWbTW-4" value="Valid?" style="rhombus;strokeWidth=2;whiteSpace=wrap;" vertex="1" parent="1">
          <mxGeometry x="242" y="335" width="91" height="91" as="geometry" />
        </mxCell>
        <mxCell id="zF4KQJ1n16yZSs5eWbTW-5" value="Admin accesses dashboard" style="whiteSpace=wrap;strokeWidth=2;" vertex="1" parent="1">
          <mxGeometry x="20" y="498" width="250" height="49" as="geometry" />
        </mxCell>
        <mxCell id="zF4KQJ1n16yZSs5eWbTW-6" value="Admin selects &#39;Logout&#39;" style="whiteSpace=wrap;strokeWidth=2;" vertex="1" parent="1">
          <mxGeometry x="49" y="597" width="193" height="67" as="geometry" />
        </mxCell>
        <mxCell id="zF4KQJ1n16yZSs5eWbTW-7" value="End" style="whiteSpace=wrap;strokeWidth=2;" vertex="1" parent="1">
          <mxGeometry x="102" y="714" width="86" height="49" as="geometry" />
        </mxCell>
        <mxCell id="zF4KQJ1n16yZSs5eWbTW-8" value="Display error message" style="whiteSpace=wrap;strokeWidth=2;" vertex="1" parent="1">
          <mxGeometry x="320" y="498" width="217" height="49" as="geometry" />
        </mxCell>
        <mxCell id="zF4KQJ1n16yZSs5eWbTW-9" value="Start" style="whiteSpace=wrap;strokeWidth=2;" vertex="1" parent="1">
          <mxGeometry x="783" y="20" width="96" height="49" as="geometry" />
        </mxCell>
        <mxCell id="zF4KQJ1n16yZSs5eWbTW-10" value="User enters credentials" style="whiteSpace=wrap;strokeWidth=2;" vertex="1" parent="1">
          <mxGeometry x="718" y="119" width="227" height="49" as="geometry" />
        </mxCell>
        <mxCell id="zF4KQJ1n16yZSs5eWbTW-11" value="System validates credentials" style="whiteSpace=wrap;strokeWidth=2;" vertex="1" parent="1">
          <mxGeometry x="741" y="218" width="180" height="67" as="geometry" />
        </mxCell>
        <mxCell id="zF4KQJ1n16yZSs5eWbTW-12" value="Valid?" style="rhombus;strokeWidth=2;whiteSpace=wrap;" vertex="1" parent="1">
          <mxGeometry x="786" y="335" width="91" height="91" as="geometry" />
        </mxCell>
        <mxCell id="zF4KQJ1n16yZSs5eWbTW-13" value="User accesses account" style="whiteSpace=wrap;strokeWidth=2;" vertex="1" parent="1">
          <mxGeometry x="587" y="498" width="220" height="49" as="geometry" />
        </mxCell>
        <mxCell id="zF4KQJ1n16yZSs5eWbTW-14" value="User selects &#39;Logout&#39;" style="whiteSpace=wrap;strokeWidth=2;" vertex="1" parent="1">
          <mxGeometry x="601" y="597" width="193" height="67" as="geometry" />
        </mxCell>
        <mxCell id="zF4KQJ1n16yZSs5eWbTW-15" value="End" style="whiteSpace=wrap;strokeWidth=2;" vertex="1" parent="1">
          <mxGeometry x="654" y="714" width="86" height="49" as="geometry" />
        </mxCell>
        <mxCell id="zF4KQJ1n16yZSs5eWbTW-16" value="Display error message" style="whiteSpace=wrap;strokeWidth=2;" vertex="1" parent="1">
          <mxGeometry x="857" y="498" width="217" height="49" as="geometry" />
        </mxCell>
        <mxCell id="zF4KQJ1n16yZSs5eWbTW-17" value="" style="curved=1;startArrow=none;endArrow=block;exitX=0.5;exitY=1;entryX=0.5;entryY=0;rounded=0;" edge="1" parent="1" source="zF4KQJ1n16yZSs5eWbTW-1" target="zF4KQJ1n16yZSs5eWbTW-2">
          <mxGeometry relative="1" as="geometry">
            <Array as="points" />
          </mxGeometry>
        </mxCell>
        <mxCell id="zF4KQJ1n16yZSs5eWbTW-18" value="" style="curved=1;startArrow=none;endArrow=block;exitX=0.5;exitY=1;entryX=0.5;entryY=0;rounded=0;" edge="1" parent="1" source="zF4KQJ1n16yZSs5eWbTW-2" target="zF4KQJ1n16yZSs5eWbTW-3">
          <mxGeometry relative="1" as="geometry">
            <Array as="points" />
          </mxGeometry>
        </mxCell>
        <mxCell id="zF4KQJ1n16yZSs5eWbTW-19" value="" style="curved=1;startArrow=none;endArrow=block;exitX=0.5;exitY=0.99;entryX=0.49;entryY=0;rounded=0;" edge="1" parent="1" source="zF4KQJ1n16yZSs5eWbTW-3" target="zF4KQJ1n16yZSs5eWbTW-4">
          <mxGeometry relative="1" as="geometry">
            <Array as="points" />
          </mxGeometry>
        </mxCell>
        <mxCell id="zF4KQJ1n16yZSs5eWbTW-20" value="Yes" style="curved=1;startArrow=none;endArrow=block;exitX=0;exitY=0.78;entryX=0.5;entryY=0.01;rounded=0;" edge="1" parent="1" source="zF4KQJ1n16yZSs5eWbTW-4" target="zF4KQJ1n16yZSs5eWbTW-5">
          <mxGeometry relative="1" as="geometry">
            <Array as="points">
              <mxPoint x="145" y="462" />
            </Array>
          </mxGeometry>
        </mxCell>
        <mxCell id="zF4KQJ1n16yZSs5eWbTW-21" value="" style="curved=1;startArrow=none;endArrow=block;exitX=0.5;exitY=1.01;entryX=0.5;entryY=0.01;rounded=0;" edge="1" parent="1" source="zF4KQJ1n16yZSs5eWbTW-5" target="zF4KQJ1n16yZSs5eWbTW-6">
          <mxGeometry relative="1" as="geometry">
            <Array as="points" />
          </mxGeometry>
        </mxCell>
        <mxCell id="zF4KQJ1n16yZSs5eWbTW-22" value="" style="curved=1;startArrow=none;endArrow=block;exitX=0.5;exitY=1;entryX=0.5;entryY=0;rounded=0;" edge="1" parent="1" source="zF4KQJ1n16yZSs5eWbTW-6" target="zF4KQJ1n16yZSs5eWbTW-7">
          <mxGeometry relative="1" as="geometry">
            <Array as="points" />
          </mxGeometry>
        </mxCell>
        <mxCell id="zF4KQJ1n16yZSs5eWbTW-23" value="No" style="curved=1;startArrow=none;endArrow=block;exitX=0.99;exitY=0.78;entryX=0.5;entryY=0.01;rounded=0;" edge="1" parent="1" source="zF4KQJ1n16yZSs5eWbTW-4" target="zF4KQJ1n16yZSs5eWbTW-8">
          <mxGeometry relative="1" as="geometry">
            <Array as="points">
              <mxPoint x="429" y="462" />
            </Array>
          </mxGeometry>
        </mxCell>
        <mxCell id="zF4KQJ1n16yZSs5eWbTW-24" value="" style="curved=1;startArrow=none;endArrow=block;exitX=0.5;exitY=1;entryX=0.5;entryY=0;rounded=0;" edge="1" parent="1" source="zF4KQJ1n16yZSs5eWbTW-9" target="zF4KQJ1n16yZSs5eWbTW-10">
          <mxGeometry relative="1" as="geometry">
            <Array as="points" />
          </mxGeometry>
        </mxCell>
        <mxCell id="zF4KQJ1n16yZSs5eWbTW-25" value="" style="curved=1;startArrow=none;endArrow=block;exitX=0.5;exitY=1;entryX=0.5;entryY=0;rounded=0;" edge="1" parent="1" source="zF4KQJ1n16yZSs5eWbTW-10" target="zF4KQJ1n16yZSs5eWbTW-11">
          <mxGeometry relative="1" as="geometry">
            <Array as="points" />
          </mxGeometry>
        </mxCell>
        <mxCell id="zF4KQJ1n16yZSs5eWbTW-26" value="" style="curved=1;startArrow=none;endArrow=block;exitX=0.5;exitY=0.99;entryX=0.5;entryY=0;rounded=0;" edge="1" parent="1" source="zF4KQJ1n16yZSs5eWbTW-11" target="zF4KQJ1n16yZSs5eWbTW-12">
          <mxGeometry relative="1" as="geometry">
            <Array as="points" />
          </mxGeometry>
        </mxCell>
        <mxCell id="zF4KQJ1n16yZSs5eWbTW-27" value="Yes" style="curved=1;startArrow=none;endArrow=block;exitX=0;exitY=0.8;entryX=0.5;entryY=0.01;rounded=0;" edge="1" parent="1" source="zF4KQJ1n16yZSs5eWbTW-12" target="zF4KQJ1n16yZSs5eWbTW-13">
          <mxGeometry relative="1" as="geometry">
            <Array as="points">
              <mxPoint x="697" y="462" />
            </Array>
          </mxGeometry>
        </mxCell>
        <mxCell id="zF4KQJ1n16yZSs5eWbTW-28" value="" style="curved=1;startArrow=none;endArrow=block;exitX=0.5;exitY=1.01;entryX=0.5;entryY=0.01;rounded=0;" edge="1" parent="1" source="zF4KQJ1n16yZSs5eWbTW-13" target="zF4KQJ1n16yZSs5eWbTW-14">
          <mxGeometry relative="1" as="geometry">
            <Array as="points" />
          </mxGeometry>
        </mxCell>
        <mxCell id="zF4KQJ1n16yZSs5eWbTW-29" value="" style="curved=1;startArrow=none;endArrow=block;exitX=0.5;exitY=1;entryX=0.5;entryY=0;rounded=0;" edge="1" parent="1" source="zF4KQJ1n16yZSs5eWbTW-14" target="zF4KQJ1n16yZSs5eWbTW-15">
          <mxGeometry relative="1" as="geometry">
            <Array as="points" />
          </mxGeometry>
        </mxCell>
        <mxCell id="zF4KQJ1n16yZSs5eWbTW-30" value="No" style="curved=1;startArrow=none;endArrow=block;exitX=1;exitY=0.8;entryX=0.5;entryY=0.01;rounded=0;" edge="1" parent="1" source="zF4KQJ1n16yZSs5eWbTW-12" target="zF4KQJ1n16yZSs5eWbTW-16">
          <mxGeometry relative="1" as="geometry">
            <Array as="points">
              <mxPoint x="965" y="462" />
            </Array>
          </mxGeometry>
        </mxCell>
      </root>
    </mxGraphModel>
  </diagram>
</mxfile>
